<svg width="114" height="113" viewBox="0 0 114 113" fill="none" xmlns="http://www.w3.org/2000/svg">
<path d="M96.1875 12.3594H28.5C26.5325 12.3594 24.9375 13.9404 24.9375 15.8906V107.703C24.9375 109.653 26.5325 111.234 28.5 111.234H96.1875C98.155 111.234 99.75 109.653 99.75 107.703V15.8906C99.75 13.9404 98.155 12.3594 96.1875 12.3594Z" fill="#E9A522"/>
<path d="M85.5 1.76562H17.8125C15.845 1.76562 14.25 3.34662 14.25 5.29688V97.1094C14.25 99.0596 15.845 100.641 17.8125 100.641H85.5C87.4675 100.641 89.0625 99.0596 89.0625 97.1094V5.29688C89.0625 3.34662 87.4675 1.76562 85.5 1.76562Z" fill="white"/>
<path d="M76.5938 14.125H26.7188V24.7188H76.5938V14.125Z" fill="#E9A522"/>
<path d="M37.4062 35.3125H26.7188V45.9062H37.4062V35.3125Z" fill="#E9A522"/>
<path d="M37.4062 57.3828H26.7188V67.9766H37.4062V57.3828Z" fill="#E9A522"/>
<path d="M37.4062 79.4531H26.7188V90.0469H37.4062V79.4531Z" fill="#E9A522"/>
<path d="M96.1875 10.5938H90.8438V5.29688C90.8438 3.89206 90.2807 2.54478 89.2786 1.55142C88.2765 0.558062 86.9173 0 85.5 0L17.8125 0C16.3952 0 15.036 0.558062 14.0339 1.55142C13.0318 2.54478 12.4688 3.89206 12.4688 5.29688V97.1094C12.4688 98.5142 13.0318 99.8615 14.0339 100.855C15.036 101.848 16.3952 102.406 17.8125 102.406H23.1562V107.703C23.1562 109.108 23.7192 110.455 24.7214 111.449C25.7235 112.442 27.0827 113 28.5 113H96.1875C97.6048 113 98.964 112.442 99.9661 111.449C100.968 110.455 101.531 109.108 101.531 107.703V15.8906C101.531 14.4858 100.968 13.1385 99.9661 12.1452C98.964 11.1518 97.6048 10.5938 96.1875 10.5938ZM16.0312 97.1094V5.29688C16.0312 4.8286 16.2189 4.37951 16.553 4.04839C16.887 3.71727 17.3401 3.53125 17.8125 3.53125H85.5C85.9724 3.53125 86.4255 3.71727 86.7595 4.04839C87.0936 4.37951 87.2812 4.8286 87.2812 5.29688V97.1094C87.2812 97.5776 87.0936 98.0267 86.7595 98.3579C86.4255 98.689 85.9724 98.875 85.5 98.875H17.8125C17.3401 98.875 16.887 98.689 16.553 98.3579C16.2189 98.0267 16.0312 97.5776 16.0312 97.1094ZM97.9688 107.703C97.9688 108.171 97.7811 108.62 97.447 108.952C97.113 109.283 96.6599 109.469 96.1875 109.469H28.5C28.0276 109.469 27.5745 109.283 27.2405 108.952C26.9064 108.62 26.7188 108.171 26.7188 107.703V102.406H85.5C86.9173 102.406 88.2765 101.848 89.2786 100.855C90.2807 99.8615 90.8438 98.5142 90.8438 97.1094V14.125H96.1875C96.6599 14.125 97.113 14.311 97.447 14.6421C97.7811 14.9733 97.9688 15.4224 97.9688 15.8906V107.703Z" fill="#202120"/>
<path d="M26.7188 26.4844H76.5938C77.0662 26.4844 77.5192 26.2984 77.8533 25.9672C78.1873 25.6361 78.375 25.187 78.375 24.7188V14.125C78.375 13.6567 78.1873 13.2076 77.8533 12.8765C77.5192 12.5454 77.0662 12.3594 76.5938 12.3594H26.7188C26.2463 12.3594 25.7933 12.5454 25.4592 12.8765C25.1252 13.2076 24.9375 13.6567 24.9375 14.125V24.7188C24.9375 25.187 25.1252 25.6361 25.4592 25.9672C25.7933 26.2984 26.2463 26.4844 26.7188 26.4844ZM28.5 15.8906H74.8125V22.9531H28.5V15.8906ZM26.7188 47.6719H37.4062C37.8787 47.6719 38.3317 47.4859 38.6658 47.1547C38.9998 46.8236 39.1875 46.3745 39.1875 45.9062V35.3125C39.1875 34.8442 38.9998 34.3951 38.6658 34.064C38.3317 33.7329 37.8787 33.5469 37.4062 33.5469H26.7188C26.2463 33.5469 25.7933 33.7329 25.4592 34.064C25.1252 34.3951 24.9375 34.8442 24.9375 35.3125V45.9062C24.9375 46.3745 25.1252 46.8236 25.4592 47.1547C25.7933 47.4859 26.2463 47.6719 26.7188 47.6719ZM28.5 37.0781H35.625V44.1406H28.5V37.0781ZM76.5938 33.5469H55.2188C54.7463 33.5469 54.2933 33.7329 53.9592 34.064C53.6252 34.3951 53.4375 34.8442 53.4375 35.3125C53.4375 35.7808 53.6252 36.2299 53.9592 36.561C54.2933 36.8921 54.7463 37.0781 55.2188 37.0781H76.5938C77.0662 37.0781 77.5192 36.8921 77.8533 36.561C78.1873 36.2299 78.375 35.7808 78.375 35.3125C78.375 34.8442 78.1873 34.3951 77.8533 34.064C77.5192 33.7329 77.0662 33.5469 76.5938 33.5469ZM76.5938 44.1406H48.0938C47.6213 44.1406 47.1683 44.3266 46.8342 44.6578C46.5002 44.9889 46.3125 45.438 46.3125 45.9062C46.3125 46.3745 46.5002 46.8236 46.8342 47.1547C47.1683 47.4859 47.6213 47.6719 48.0938 47.6719H76.5938C77.0662 47.6719 77.5192 47.4859 77.8533 47.1547C78.1873 46.8236 78.375 46.3745 78.375 45.9062C78.375 45.438 78.1873 44.9889 77.8533 44.6578C77.5192 44.3266 77.0662 44.1406 76.5938 44.1406ZM26.7188 69.7422H37.4062C37.8787 69.7422 38.3317 69.5562 38.6658 69.225C38.9998 68.8939 39.1875 68.4448 39.1875 67.9766V57.3828C39.1875 56.9145 38.9998 56.4654 38.6658 56.1343C38.3317 55.8032 37.8787 55.6172 37.4062 55.6172H26.7188C26.2463 55.6172 25.7933 55.8032 25.4592 56.1343C25.1252 56.4654 24.9375 56.9145 24.9375 57.3828V67.9766C24.9375 68.4448 25.1252 68.8939 25.4592 69.225C25.7933 69.5562 26.2463 69.7422 26.7188 69.7422ZM28.5 59.1484H35.625V66.2109H28.5V59.1484ZM76.5938 55.6172H55.2188C54.7463 55.6172 54.2933 55.8032 53.9592 56.1343C53.6252 56.4654 53.4375 56.9145 53.4375 57.3828C53.4375 57.8511 53.6252 58.3002 53.9592 58.6313C54.2933 58.9624 54.7463 59.1484 55.2188 59.1484H76.5938C77.0662 59.1484 77.5192 58.9624 77.8533 58.6313C78.1873 58.3002 78.375 57.8511 78.375 57.3828C78.375 56.9145 78.1873 56.4654 77.8533 56.1343C77.5192 55.8032 77.0662 55.6172 76.5938 55.6172ZM76.5938 66.2109H48.0938C47.6213 66.2109 47.1683 66.397 46.8342 66.7281C46.5002 67.0592 46.3125 67.5083 46.3125 67.9766C46.3125 68.4448 46.5002 68.8939 46.8342 69.225C47.1683 69.5562 47.6213 69.7422 48.0938 69.7422H76.5938C77.0662 69.7422 77.5192 69.5562 77.8533 69.225C78.1873 68.8939 78.375 68.4448 78.375 67.9766C78.375 67.5083 78.1873 67.0592 77.8533 66.7281C77.5192 66.397 77.0662 66.2109 76.5938 66.2109ZM26.7188 91.8125H37.4062C37.8787 91.8125 38.3317 91.6265 38.6658 91.2954C38.9998 90.9642 39.1875 90.5151 39.1875 90.0469V79.4531C39.1875 78.9849 38.9998 78.5358 38.6658 78.2046C38.3317 77.8735 37.8787 77.6875 37.4062 77.6875H26.7188C26.2463 77.6875 25.7933 77.8735 25.4592 78.2046C25.1252 78.5358 24.9375 78.9849 24.9375 79.4531V90.0469C24.9375 90.5151 25.1252 90.9642 25.4592 91.2954C25.7933 91.6265 26.2463 91.8125 26.7188 91.8125ZM28.5 81.2188H35.625V88.2812H28.5V81.2188ZM76.5938 77.6875H55.2188C54.7463 77.6875 54.2933 77.8735 53.9592 78.2046C53.6252 78.5358 53.4375 78.9849 53.4375 79.4531C53.4375 79.9214 53.6252 80.3705 53.9592 80.7016C54.2933 81.0327 54.7463 81.2188 55.2188 81.2188H76.5938C77.0662 81.2188 77.5192 81.0327 77.8533 80.7016C78.1873 80.3705 78.375 79.9214 78.375 79.4531C78.375 78.9849 78.1873 78.5358 77.8533 78.2046C77.5192 77.8735 77.0662 77.6875 76.5938 77.6875ZM76.5938 88.2812H48.0938C47.6213 88.2812 47.1683 88.4673 46.8342 88.7984C46.5002 89.1295 46.3125 89.5786 46.3125 90.0469C46.3125 90.5151 46.5002 90.9642 46.8342 91.2954C47.1683 91.6265 47.6213 91.8125 48.0938 91.8125H76.5938C77.0662 91.8125 77.5192 91.6265 77.8533 91.2954C78.1873 90.9642 78.375 90.5151 78.375 90.0469C78.375 89.5786 78.1873 89.1295 77.8533 88.7984C77.5192 88.4673 77.0662 88.2812 76.5938 88.2812Z" fill="#202120"/>
</svg>
