<svg width="119" height="119" viewBox="0 0 119 119" fill="none" xmlns="http://www.w3.org/2000/svg">
<g clip-path="url(#clip0_812_244)">
<path d="M113.306 60.1275C113.306 78.1402 97.4776 87.4836 81.2081 87.4836C71.0048 87.4836 60.9874 83.8113 54.9212 76.6295C53.7823 75.2814 52.8062 73.8172 51.9694 72.2832C50.1333 68.8201 49.0874 64.7527 49.0874 60.1275C49.1339 57.6871 49.5058 55.2932 50.203 52.9457C52.8991 43.4396 60.0577 33.1201 66.3796 28.4252C68.7503 26.6588 69.3314 23.3352 67.6579 20.8947L60.8944 10.9936C59.9183 9.55254 60.2901 7.57695 61.7312 6.60078C62.2192 6.27539 62.8003 6.08945 63.3814 6.04297L63.637 6.01973C64.2878 5.99648 64.9386 6.15918 65.4731 6.50781L69.773 9.29687C71.8415 10.6217 74.5376 10.3195 76.2575 8.59961L78.2796 6.57754C79.8833 4.97383 82.4864 4.97383 84.1134 6.57754L86.1587 8.62285C87.8786 10.3428 90.5515 10.6449 92.62 9.34336L97.3149 6.41484C97.8263 6.08945 98.4073 5.92676 98.9884 5.92676C99.0581 5.92676 99.1278 5.92676 99.1976 5.92676C100.941 6.04297 102.266 7.55371 102.149 9.27363C102.103 9.83145 101.917 10.3893 101.615 10.8541L94.7351 20.918C93.0616 23.3584 93.6427 26.7053 96.0134 28.4484C103.985 34.3752 113.306 49.2734 113.306 60.1275Z" fill="white"/>
<path d="M79.2327 8.62285C80.9526 10.3428 83.6254 10.6449 85.694 9.34336L86.4377 8.87852C86.3448 8.78555 86.2518 8.71582 86.1588 8.62285L84.1135 6.57754C82.5098 4.97383 79.9067 4.97383 78.2797 6.57754L77.7452 7.11211L79.2327 8.62285ZM96.0135 28.4484C93.6428 26.682 93.0618 23.3584 94.7352 20.918L101.592 10.8773C102.568 9.43633 102.196 7.48398 100.755 6.48457C100.29 6.15918 99.7323 5.97324 99.1745 5.95C99.1047 5.95 99.035 5.95 98.9653 5.95C98.361 5.95 97.8032 6.1127 97.2918 6.43809L94.9676 7.90234C95.386 8.87852 95.2698 10.0174 94.6655 10.9006L87.8323 20.918C86.1588 23.3584 86.7399 26.7053 89.1106 28.4484C97.0827 34.3752 106.403 49.2734 106.403 60.1275C106.403 76.8619 92.7596 86.1123 77.7684 87.3441C78.9073 87.4371 80.0694 87.4836 81.2315 87.4836C97.501 87.4836 113.329 78.1402 113.329 60.1275C113.306 49.2734 103.986 34.3752 96.0135 28.4484ZM62.8702 9.29687C64.8225 10.552 67.3327 10.366 69.0991 8.85527L65.4965 6.5543C64.9387 6.20566 64.3112 6.01973 63.6604 6.06621H63.3815C62.1961 6.1127 61.1502 6.80996 60.6389 7.8791L62.8702 9.29687Z" fill="white"/>
<path d="M37.5827 104.985C36.2579 104.706 34.9098 104.706 33.6083 105.008L28.0766 106.286L27.7512 107.96L39.1631 105.31L37.5827 104.985Z" fill="#F9BD81"/>
<path d="M27.728 107.053L40.5112 104.078C41.8128 103.776 43.1841 103.776 44.4856 104.055L75.3745 110.865C79.0235 111.679 82.8585 110.888 85.88 108.704L115.142 87.716C116.676 86.6236 117.536 84.8107 117.42 82.9513C117.234 79.9298 114.654 77.6289 111.632 77.7916C111.191 77.8148 110.772 77.8845 110.354 78.024L69.5175 90.4586L33.1899 78.6283L27.728 107.053Z" fill="#E9A522"/>
<path d="M117.025 81.1617C116.699 81.6033 116.281 82.0217 115.816 82.3471L86.554 103.335C83.5093 105.52 79.6976 106.31 76.0485 105.496L45.1597 98.6863C43.8349 98.4074 42.4868 98.4074 41.1853 98.7096L28.7739 101.592L27.728 107.054L40.5112 104.079C41.8128 103.776 43.1841 103.776 44.4856 104.055L75.3745 110.865C79.0235 111.679 82.8585 110.888 85.88 108.704L115.142 87.716C117.21 86.2285 117.977 83.5324 117.025 81.1617Z" fill="#E9A522"/>
<path d="M81.6963 89.4591C81.6963 89.924 81.6499 90.3888 81.5336 90.8537C80.7899 93.8287 77.8381 95.7113 74.8167 95.1302L64.8225 92.8757L25.1946 81.0687L43.37 75.6068C49.1573 73.8636 55.3629 74.2355 60.8946 76.6295L78.2333 84.1599C79.7672 84.834 80.9526 86.1355 81.4407 87.7392C81.4872 87.8554 81.5104 87.9949 81.5336 88.1111C81.5336 88.1343 81.5336 88.1343 81.5569 88.1576C81.5801 88.297 81.6266 88.4365 81.6266 88.5759C81.6266 88.5992 81.6266 88.6224 81.6266 88.6224C81.6499 88.7386 81.6499 88.8548 81.6731 88.9711C81.6731 89.1105 81.6963 89.2732 81.6963 89.4591Z" fill="#E9A522"/>
<path d="M81.6963 89.4592C81.6963 89.924 81.6498 90.3889 81.5336 90.8537C80.7899 93.8287 77.8381 95.7113 74.8166 95.1303L64.8225 92.8758C64.8225 91.3418 66.0543 90.11 67.5883 90.11C67.7975 90.11 68.0067 90.1332 68.1926 90.1797L74.654 91.6439C77.5825 92.2947 80.5342 90.598 81.4407 87.7393C81.5336 88.0182 81.6034 88.2971 81.6266 88.576C81.6266 88.5992 81.6266 88.6225 81.6266 88.6225C81.6499 88.7387 81.6498 88.8549 81.6731 88.9711C81.6731 89.1105 81.6963 89.2732 81.6963 89.4592Z" fill="#E9A522"/>
<path d="M0.186035 76.0252L20.1278 74.6772L34.1661 73.5615C36.3276 73.3988 38.2335 75.0025 38.3962 77.1641L40.8134 106.589C40.9761 108.75 39.3724 110.656 37.2108 110.819L23.1726 111.934L0.209277 113.608" fill="white"/>
<path d="M37.1875 110.842L23.1492 111.958L20.1277 74.7003L34.166 73.5847C36.3275 73.422 38.2333 75.0257 38.396 77.1873L40.8132 106.612C40.9527 108.773 39.349 110.656 37.1875 110.842Z" fill="white"/>
<path d="M81.2081 74.9793C91.2461 74.9793 99.3835 66.8419 99.3835 56.8039C99.3835 46.7659 91.2461 38.6285 81.2081 38.6285C71.1701 38.6285 63.0327 46.7659 63.0327 56.8039C63.0327 66.8419 71.1701 74.9793 81.2081 74.9793Z" fill="#E9A522"/>
<path d="M80.8896 56.3854C80.5273 56.4005 80.1689 56.3039 79.8614 56.1084C79.5539 55.9129 79.3114 55.6275 79.1659 55.2895C79.0203 54.9516 78.9783 54.5768 79.0454 54.2141C79.1125 53.8515 79.2856 53.5179 79.542 53.257C79.7984 52.9961 80.1263 52.8199 80.4826 52.7516C80.839 52.6834 81.2073 52.7261 81.5394 52.8742C81.8715 53.0224 82.152 53.269 82.3442 53.582C82.5363 53.895 82.6312 54.2596 82.6163 54.6283C82.6163 55.0335 82.7745 55.4222 83.0561 55.7087C83.3377 55.9952 83.7196 56.1562 84.1178 56.1562C84.5161 56.1562 84.898 55.9952 85.1795 55.7087C85.4611 55.4222 85.6193 55.0335 85.6193 54.6283C85.6168 53.6082 85.3056 52.6136 84.728 51.7798C84.1504 50.946 83.3345 50.3135 82.3911 49.9682V49.1279C82.3911 48.7227 82.2329 48.334 81.9514 48.0475C81.6698 47.761 81.2879 47.6 80.8896 47.6C80.4914 47.6 80.1095 47.761 79.8279 48.0475C79.5463 48.334 79.3881 48.7227 79.3881 49.1279V49.9682C78.4448 50.3135 77.6289 50.946 77.0513 51.7798C76.4737 52.6136 76.1625 53.6082 76.16 54.6283C76.16 55.9048 76.6583 57.129 77.5452 58.0315C78.4322 58.9341 79.6352 59.4412 80.8896 59.4412C81.2311 59.4412 81.565 59.5443 81.8489 59.7373C82.1329 59.9304 82.3542 60.2048 82.4849 60.5259C82.6156 60.847 82.6498 61.2002 82.5832 61.5411C82.5165 61.8819 82.3521 62.195 82.1106 62.4407C81.8691 62.6865 81.5615 62.8538 81.2265 62.9216C80.8916 62.9894 80.5444 62.9546 80.2289 62.8216C79.9133 62.6886 79.6437 62.4634 79.4539 62.1745C79.2642 61.8855 79.1629 61.5458 79.1629 61.1983C79.1629 60.7931 79.0047 60.4044 78.7231 60.1179C78.4416 59.8314 78.0597 59.6704 77.6614 59.6704C77.2632 59.6704 76.8813 59.8314 76.5997 60.1179C76.3181 60.4044 76.16 60.7931 76.16 61.1983C76.1559 62.2107 76.4656 63.1987 77.0452 64.0217C77.6248 64.8446 78.4447 65.4606 79.3881 65.782V66.6987C79.3881 67.104 79.5463 67.4926 79.8279 67.7791C80.1095 68.0657 80.4914 68.2266 80.8896 68.2266C81.2879 68.2266 81.6698 68.0657 81.9514 67.7791C82.2329 67.4926 82.3911 67.104 82.3911 66.6987V65.782C83.4705 65.4307 84.39 64.6967 84.9823 63.7136C85.5747 62.7305 85.8005 61.5637 85.6186 60.4255C85.4367 59.2872 84.8593 58.2533 83.9914 57.5118C83.1235 56.7704 82.0228 56.3706 80.8896 56.3854Z" fill="white"/>
<path d="M81.2082 38.6517C80.0461 38.6517 78.884 38.7679 77.7451 38.9771C87.5998 40.883 94.0379 50.4123 92.132 60.267C90.7143 67.5418 85.0432 73.2361 77.7451 74.6539C87.5998 76.5597 97.1291 70.1449 99.035 60.2902C100.941 50.4355 94.526 40.9062 84.6713 39.0004C83.5324 38.7679 82.3703 38.6517 81.2082 38.6517Z" fill="#E9A522"/>
<path d="M117.652 79.0699C115.862 76.583 112.725 75.4906 109.773 76.3273C113.12 71.7486 114.863 66.2635 114.863 60.1275C114.863 48.8551 105.357 33.3525 96.8735 27.0307C96.6178 26.8447 96.3854 26.6123 96.1762 26.3566C98.5702 26.0545 101.011 26.3566 103.242 27.2398C105.334 28.0998 107.193 29.4711 108.657 31.191C109.006 31.6094 109.494 31.8186 110.005 31.8186C110.4 31.8186 110.796 31.6791 111.121 31.4234C111.865 30.7959 111.958 29.7035 111.33 28.9598C109.517 26.7982 107.17 25.0783 104.543 24.0092C102.684 23.2654 100.708 22.8703 98.7329 22.7773C100.29 21.7779 102.312 20.9645 104.66 21.1271C106.542 21.2666 108.355 21.9174 109.889 23.033C110.656 23.5908 111.749 23.4281 112.33 22.6611C112.887 21.8941 112.725 20.8018 111.958 20.2207C109.889 18.71 107.472 17.8268 104.915 17.6408C102.126 17.4781 99.7323 18.2451 97.78 19.3143L102.87 11.8535C103.358 11.133 103.66 10.2963 103.707 9.41309C103.8 8.11152 103.358 6.85645 102.498 5.85703C101.638 4.88086 100.43 4.27656 99.128 4.20684C99.0118 4.20684 98.9188 4.20684 98.8026 4.20684C97.8729 4.20684 96.9897 4.4625 96.1995 4.95059L91.5046 7.90234C90.1333 8.7623 88.3669 8.57637 87.2048 7.41426L85.1594 5.36895C82.8817 3.09121 79.163 3.09121 76.862 5.36895L74.8399 7.39102C73.701 8.52988 71.8882 8.73906 70.5169 7.85586L66.2171 5.11328C65.3571 4.55547 64.3809 4.2998 63.3583 4.34629H63.1026C62.1962 4.39277 61.2897 4.67168 60.546 5.18301C59.4536 5.92676 58.7331 7.04238 58.5007 8.3207C58.2682 9.59902 58.5239 10.9006 59.2677 11.993L66.0311 21.9174C67.17 23.5908 66.7981 25.8686 65.1479 27.0771C58.2217 32.2137 50.9934 43.1607 48.3438 52.5041C47.6001 54.991 47.205 57.5477 47.1585 60.1275V60.1508C47.1585 64.7295 48.1346 68.9828 50.0637 72.7713C47.5768 72.8178 45.0899 73.1896 42.6727 73.9102L39.3259 74.9096C38.3032 72.934 36.1882 71.6324 33.8175 71.8184L19.7792 72.934L1.58054 74.4447C0.627613 74.5145 -0.0928953 75.3744 -0.0231687 76.3273C0.0465578 77.2803 0.906519 78.0008 1.85945 77.9311L18.3149 76.583L21.0575 110.354L1.58054 111.888C0.627613 111.958 -0.0928953 112.794 -0.0231687 113.771C0.0465578 114.677 0.81355 115.374 1.72 115.374C1.76648 115.374 1.81296 115.374 1.85945 115.374L37.1178 112.585C40.2323 112.329 42.5798 109.587 42.3241 106.472L42.2544 105.612C42.8122 105.612 43.37 105.659 43.9278 105.775L74.8399 112.562C75.9091 112.794 76.9782 112.911 78.0473 112.911C81.1385 112.911 84.1833 111.958 86.7399 110.121L115.979 89.1338C117.559 88.0182 118.582 86.3447 118.907 84.4389C119.232 82.533 118.791 80.6504 117.652 79.0699ZM38.8843 107.007C38.8843 107.077 38.8843 107.146 38.861 107.216C38.8378 107.332 38.8145 107.425 38.7913 107.518C38.7913 107.542 38.7913 107.565 38.768 107.588C38.4891 108.402 37.7686 109.006 36.8622 109.076L24.5671 110.052L21.8245 76.2809L34.1196 75.3047C34.1893 75.3047 34.2591 75.3047 34.352 75.3047C34.3753 75.3047 34.3753 75.3047 34.3985 75.3047C35.2585 75.3512 36.0022 75.8625 36.3276 76.6295C36.3276 76.6527 36.3509 76.6527 36.3509 76.676C36.3741 76.7225 36.3741 76.7689 36.3973 76.7922C36.3973 76.8154 36.4206 76.8387 36.4206 76.8852C36.4206 76.9084 36.4438 76.9549 36.4438 76.9781C36.4438 77.0246 36.4671 77.0479 36.4671 77.0943C36.4671 77.1176 36.4671 77.1641 36.4903 77.1873C36.4903 77.2338 36.5136 77.2803 36.5136 77.3268L38.9307 106.751C38.9307 106.821 38.9307 106.891 38.9307 106.984C38.8843 106.984 38.8843 107.007 38.8843 107.007ZM62.1729 10.0174C61.9637 9.71523 61.8708 9.32012 61.9405 8.94824C62.0102 8.57637 62.2194 8.25098 62.5448 8.0418C62.754 7.90234 63.0096 7.80938 63.2885 7.78613H63.5442C63.8464 7.76289 64.1253 7.85586 64.3577 8.01855L68.6575 10.7611C71.3768 12.5043 75.0259 12.1092 77.3268 9.83144L79.3489 7.80937C80.2786 6.87969 81.7893 6.87969 82.719 7.80937L84.7643 9.85469C87.0653 12.1557 90.5981 12.5508 93.3639 10.8309L98.0589 7.90234C98.2913 7.76289 98.5469 7.69316 98.8026 7.69316C98.8259 7.69316 98.8723 7.69316 98.8956 7.69316C99.2675 7.71641 99.6161 7.8791 99.8717 8.18125C100.127 8.46016 100.244 8.83203 100.22 9.20391C100.197 9.45957 100.127 9.69199 99.988 9.90117L93.1315 19.9418C92.3413 21.0807 91.9229 22.4287 91.8764 23.8C88.2274 24.7297 84.4854 25.1945 80.7202 25.1945H80.697C77.1641 25.1945 73.6313 24.7762 70.1915 23.9627C70.1682 22.5682 69.7731 21.1736 68.9364 19.9418L62.1729 10.0174ZM51.7139 53.457C54.2009 44.718 60.8714 34.5844 67.263 29.843C68.1926 29.1457 68.9132 28.2857 69.4012 27.3328C73.0968 28.216 76.9085 28.6576 80.697 28.6576H80.7202C84.7411 28.6576 88.7155 28.1695 92.6202 27.1934C93.1315 28.2393 93.8753 29.1457 94.8282 29.843C102.498 35.5373 111.4 50.0172 111.4 60.1275C111.4 67.4721 108.564 73.7475 103.172 78.3262L81.7196 84.8572C80.9526 83.8578 79.9532 83.0443 78.7446 82.533L61.4059 75.0025C59.105 74.0031 56.6878 73.3523 54.2473 73.0037C53.9219 72.5156 53.643 72.0043 53.3641 71.4697C51.5977 68.0996 50.6913 64.2879 50.6913 60.1275C50.7145 57.8963 51.0632 55.6418 51.7139 53.457ZM115.467 83.8811C115.305 84.8572 114.77 85.7172 113.957 86.2982L84.6946 107.286C82.0682 109.169 78.7446 109.866 75.5837 109.169L44.6948 102.359C43.8116 102.173 42.9052 102.08 41.9987 102.126L40.0464 78.3494L43.6954 77.257C49.0643 75.6301 54.8749 75.9787 60.0114 78.21L77.3501 85.7404C79.1165 86.5074 80.0926 88.4365 79.6743 90.3191C79.1862 92.4807 77.0247 93.8519 74.8632 93.3639L65.0085 91.1326C64.0788 90.9234 63.1259 91.5045 62.9167 92.4574C62.7075 93.4104 63.2885 94.34 64.2415 94.5492L74.0962 96.7805C74.654 96.8967 75.2118 96.9664 75.7464 96.9664C79.1862 96.9664 82.3007 94.5957 83.0909 91.0861C83.3233 90.0635 83.3233 89.0641 83.1606 88.0879L104.567 81.5801C104.59 81.5801 104.613 81.5568 104.636 81.5568L110.726 79.6975C112.26 79.2326 113.91 79.7904 114.863 81.092C115.398 81.9055 115.63 82.9049 115.467 83.8811ZM81.0456 76.7225C92.0159 76.7225 100.964 67.7975 100.964 56.8271C100.964 45.8568 92.0391 36.9318 81.0456 36.9318C70.052 36.9318 61.127 45.8336 61.127 56.8039C61.127 67.7975 70.052 76.7225 81.0456 76.7225ZM81.0456 40.3949C90.11 40.3949 97.4778 47.7627 97.4778 56.8039C97.4778 65.8451 90.11 73.2129 81.0456 73.2129C71.9811 73.2129 64.6133 65.8451 64.6133 56.8039C64.6133 47.7627 71.9811 40.3949 81.0456 40.3949Z" fill="#202120"/>
</g>
<defs>
<clipPath id="clip0_812_244">
<rect width="119" height="119" fill="white"/>
</clipPath>
</defs>
</svg>
