<svg width="108" height="108" viewBox="0 0 108 108" fill="none" xmlns="http://www.w3.org/2000/svg">
<path d="M96.1875 10.6523H11.8125C8.31757 10.6523 5.48438 13.4855 5.48438 16.9805V100.09C5.48438 103.585 8.31757 106.418 11.8125 106.418H96.1875C99.6824 106.418 102.516 103.585 102.516 100.09V16.9805C102.516 13.4855 99.6824 10.6523 96.1875 10.6523Z" fill="white"/>
<path d="M96.1875 10.6523H11.8125C10.1342 10.6523 8.52459 11.3191 7.33784 12.5058C6.15109 13.6926 5.48438 15.3021 5.48438 16.9805V33.6445H102.516V16.9805C102.516 15.3021 101.849 13.6926 100.662 12.5058C99.4754 11.3191 97.8658 10.6523 96.1875 10.6523Z" fill="#E9A522"/>
<path d="M24.4688 43.1367H17.0859C15.921 43.1367 14.9766 44.0811 14.9766 45.2461V52.6289C14.9766 53.7939 15.921 54.7383 17.0859 54.7383H24.4688C25.6337 54.7383 26.5781 53.7939 26.5781 52.6289V45.2461C26.5781 44.0811 25.6337 43.1367 24.4688 43.1367Z" fill="white"/>
<path d="M45.5625 43.1367H38.1797C37.0147 43.1367 36.0703 44.0811 36.0703 45.2461V52.6289C36.0703 53.7939 37.0147 54.7383 38.1797 54.7383H45.5625C46.7275 54.7383 47.6719 53.7939 47.6719 52.6289V45.2461C47.6719 44.0811 46.7275 43.1367 45.5625 43.1367Z" fill="white"/>
<path d="M66.6562 43.1367H59.2734C58.1085 43.1367 57.1641 44.0811 57.1641 45.2461V52.6289C57.1641 53.7939 58.1085 54.7383 59.2734 54.7383H66.6562C67.8212 54.7383 68.7656 53.7939 68.7656 52.6289V45.2461C68.7656 44.0811 67.8212 43.1367 66.6562 43.1367Z" fill="white"/>
<path d="M87.75 43.1367H80.3672C79.2022 43.1367 78.2578 44.0811 78.2578 45.2461V52.6289C78.2578 53.7939 79.2022 54.7383 80.3672 54.7383H87.75C88.915 54.7383 89.8594 53.7939 89.8594 52.6289V45.2461C89.8594 44.0811 88.915 43.1367 87.75 43.1367Z" fill="white"/>
<path d="M24.4688 64.2305H17.0859C15.921 64.2305 14.9766 65.1749 14.9766 66.3398V73.7227C14.9766 74.8876 15.921 75.832 17.0859 75.832H24.4688C25.6337 75.832 26.5781 74.8876 26.5781 73.7227V66.3398C26.5781 65.1749 25.6337 64.2305 24.4688 64.2305Z" fill="white"/>
<path d="M45.5625 64.2305H38.1797C37.0147 64.2305 36.0703 65.1749 36.0703 66.3398V73.7227C36.0703 74.8876 37.0147 75.832 38.1797 75.832H45.5625C46.7275 75.832 47.6719 74.8876 47.6719 73.7227V66.3398C47.6719 65.1749 46.7275 64.2305 45.5625 64.2305Z" fill="white"/>
<path d="M60.7269 77.5786C60.5193 77.5788 60.3138 77.5381 60.1219 77.4588C59.9301 77.3796 59.7558 77.2633 59.6089 77.1166L55.8795 73.3872C55.5828 73.0905 55.416 72.6879 55.416 72.2682C55.416 71.8485 55.5828 71.446 55.8795 71.1492C56.1763 70.8524 56.5788 70.6857 56.9986 70.6857C57.4183 70.6857 57.8208 70.8524 58.1176 71.1492L60.5391 73.5644L67.6477 63.7031C67.8933 63.3627 68.2641 63.1338 68.6785 63.0667C69.0928 62.9997 69.5169 63.1 69.8573 63.3456C70.1977 63.5912 70.4266 63.9619 70.4937 64.3763C70.5607 64.7907 70.4604 65.2147 70.2148 65.5551L62.0157 76.9226C61.8815 77.1087 61.7084 77.2634 61.5084 77.3759C61.3085 77.4885 61.0864 77.5562 60.8577 77.5744C60.8113 77.5786 60.7691 77.5786 60.7269 77.5786Z" fill="#63EA86"/>
<path d="M87.75 64.2305H80.3672C79.2022 64.2305 78.2578 65.1749 78.2578 66.3398V73.7227C78.2578 74.8876 79.2022 75.832 80.3672 75.832H87.75C88.915 75.832 89.8594 74.8876 89.8594 73.7227V66.3398C89.8594 65.1749 88.915 64.2305 87.75 64.2305Z" fill="white"/>
<path d="M24.4688 85.3242H17.0859C15.921 85.3242 14.9766 86.2686 14.9766 87.4336V94.8164C14.9766 95.9814 15.921 96.9258 17.0859 96.9258H24.4688C25.6337 96.9258 26.5781 95.9814 26.5781 94.8164V87.4336C26.5781 86.2686 25.6337 85.3242 24.4688 85.3242Z" fill="white"/>
<path d="M45.5625 85.3242H38.1797C37.0147 85.3242 36.0703 86.2686 36.0703 87.4336V94.8164C36.0703 95.9814 37.0147 96.9258 38.1797 96.9258H45.5625C46.7275 96.9258 47.6719 95.9814 47.6719 94.8164V87.4336C47.6719 86.2686 46.7275 85.3242 45.5625 85.3242Z" fill="white"/>
<path d="M66.6562 85.3242H59.2734C58.1085 85.3242 57.1641 86.2686 57.1641 87.4336V94.8164C57.1641 95.9814 58.1085 96.9258 59.2734 96.9258H66.6562C67.8212 96.9258 68.7656 95.9814 68.7656 94.8164V87.4336C68.7656 86.2686 67.8212 85.3242 66.6562 85.3242Z" fill="white"/>
<path d="M87.75 85.3242H80.3672C79.2022 85.3242 78.2578 86.2686 78.2578 87.4336V94.8164C78.2578 95.9814 79.2022 96.9258 80.3672 96.9258H87.75C88.915 96.9258 89.8594 95.9814 89.8594 94.8164V87.4336C89.8594 86.2686 88.915 85.3242 87.75 85.3242Z" fill="white"/>
<path d="M84.1978 106.418V94.4282C84.1978 92.7499 84.8645 91.1403 86.0512 89.9536C87.238 88.7668 88.8476 88.1001 90.5259 88.1001H102.516L84.1978 106.418Z" fill="#F7A21C" fill-opacity="0.46"/>
<path d="M23.8358 19.3008C25.2609 19.2985 26.6269 18.7309 27.6338 17.7224C28.6408 16.7139 29.2063 15.347 29.2063 13.9219V10.6523H18.4485V13.9219C18.4485 14.629 18.5879 15.3291 18.8587 15.9822C19.1296 16.6354 19.5265 17.2287 20.0269 17.7283C20.5273 18.2279 21.1212 18.6239 21.7748 18.8938C22.4284 19.1636 23.1288 19.3019 23.8358 19.3008Z" fill="#E9A522"/>
<path d="M26.0422 6.96094C26.0422 3.99025 23.634 1.58203 20.6633 1.58203C17.6926 1.58203 15.2844 3.99025 15.2844 6.96094V13.9219C15.2844 16.8926 17.6926 19.3008 20.6633 19.3008C23.634 19.3008 26.0422 16.8926 26.0422 13.9219V6.96094Z" fill="#EEEEEE"/>
<path d="M90.492 19.3008C91.1991 19.3019 91.8995 19.1636 92.5531 18.8938C93.2066 18.6239 93.8006 18.2279 94.301 17.7283C94.8013 17.2287 95.1983 16.6354 95.4691 15.9822C95.74 15.3291 95.8794 14.629 95.8794 13.9219V10.6523H85.1216V13.9219C85.1216 15.347 85.6871 16.7139 86.694 17.7224C87.701 18.7309 89.0669 19.2985 90.492 19.3008Z" fill="#E9A522"/>
<path d="M92.7153 6.96094C92.7153 3.99025 90.3071 1.58203 87.3364 1.58203C84.3657 1.58203 81.9575 3.99025 81.9575 6.96094V13.9219C81.9575 16.8926 84.3657 19.3008 87.3364 19.3008C90.3071 19.3008 92.7153 16.8926 92.7153 13.9219V6.96094Z" fill="#EEEEEE"/>
<path d="M87.3281 1.58204C86.7919 1.58131 86.2587 1.66094 85.7461 1.81829C86.8452 2.15757 87.8069 2.83989 88.4901 3.76532C89.1734 4.69074 89.5423 5.81063 89.543 6.96094V13.9219C89.5423 15.0722 89.1734 16.1921 88.4901 17.1175C87.8069 18.0429 86.8452 18.7253 85.7461 19.0645C86.2587 19.2219 86.7919 19.3015 87.3281 19.3008C88.0352 19.3019 88.7356 19.1636 89.3891 18.8938C90.0427 18.6239 90.6367 18.2279 91.137 17.7283C91.6374 17.2287 92.0344 16.6354 92.3052 15.9823C92.5761 15.3291 92.7155 14.629 92.7155 13.9219V6.96094C92.7155 6.25387 92.5761 5.55372 92.3052 4.90058C92.0344 4.24743 91.6374 3.65408 91.137 3.1545C90.6367 2.65491 90.0427 2.25888 89.3891 1.98906C88.7356 1.71924 88.0352 1.58093 87.3281 1.58204Z" fill="#F7A21C" fill-opacity="0.46"/>
<path d="M57.1641 19.3008C58.5906 19.3008 59.9588 18.7341 60.9675 17.7253C61.9763 16.7166 62.543 15.3484 62.543 13.9219V10.6523H51.7852V13.9219C51.7852 15.3484 52.3519 16.7166 53.3606 17.7253C54.3693 18.7341 55.7375 19.3008 57.1641 19.3008Z" fill="#E9A522"/>
<path d="M59.3789 6.96094C59.3789 3.99025 56.9707 1.58203 54 1.58203C51.0293 1.58203 48.6211 3.99025 48.6211 6.96094V13.9219C48.6211 16.8926 51.0293 19.3008 54 19.3008C56.9707 19.3008 59.3789 16.8926 59.3789 13.9219V6.96094Z" fill="#EEEEEE"/>
<path d="M54 1.58204C53.4638 1.58131 52.9305 1.66094 52.418 1.81829C53.5171 2.15757 54.4787 2.83989 55.162 3.76531C55.8452 4.69074 56.2142 5.81062 56.2148 6.96094V13.9219C56.2142 15.0722 55.8452 16.1921 55.162 17.1175C54.4787 18.0429 53.5171 18.7253 52.418 19.0645C52.9305 19.2219 53.4638 19.3015 54 19.3008C55.4266 19.3008 56.7947 18.7341 57.8035 17.7253C58.8122 16.7166 59.3789 15.3485 59.3789 13.9219V6.96094C59.3789 5.53437 58.8122 4.16622 57.8035 3.15748C56.7947 2.14874 55.4266 1.58204 54 1.58204ZM20.6719 1.58204C20.1357 1.58131 19.6024 1.66094 19.0898 1.81829C20.189 2.15757 21.1506 2.83989 21.8339 3.76531C22.5171 4.69074 22.8861 5.81062 22.8867 6.96094V13.9219C22.8861 15.0722 22.5171 16.1921 21.8339 17.1175C21.1506 18.0429 20.189 18.7253 19.0898 19.0645C19.6024 19.2219 20.1357 19.3015 20.6719 19.3008C22.097 19.2985 23.463 18.7309 24.4699 17.7224C25.4768 16.7139 26.0423 15.347 26.0423 13.9219V6.96094C26.0423 5.53583 25.4768 4.16896 24.4699 3.16046C23.463 2.15196 22.097 1.58427 20.6719 1.58204Z" fill="#F7A21C" fill-opacity="0.46"/>
<path d="M17.0859 77.4141H24.4688C25.4474 77.4129 26.3857 77.0237 27.0777 76.3316C27.7698 75.6396 28.159 74.7013 28.1602 73.7227V66.3398C28.159 65.3612 27.7698 64.4229 27.0777 63.7309C26.3857 63.0388 25.4474 62.6496 24.4688 62.6484H17.0859C16.1073 62.6496 15.169 63.0388 14.477 63.7309C13.7849 64.4229 13.3956 65.3612 13.3945 66.3398V73.7227C13.3956 74.7013 13.7849 75.6396 14.477 76.3316C15.169 77.0237 16.1073 77.4129 17.0859 77.4141ZM16.5586 66.3398C16.5586 66.2 16.6142 66.0659 16.713 65.967C16.8119 65.8681 16.9461 65.8125 17.0859 65.8125H24.4688C24.6086 65.8125 24.7427 65.8681 24.8416 65.967C24.9405 66.0659 24.9961 66.2 24.9961 66.3398V73.7227C24.9961 73.8625 24.9405 73.9966 24.8416 74.0955C24.7427 74.1944 24.6086 74.25 24.4688 74.25H17.0859C16.9461 74.25 16.8119 74.1944 16.713 74.0955C16.6142 73.9966 16.5586 73.8625 16.5586 73.7227V66.3398ZM80.3672 56.3203H87.75C88.7287 56.3192 89.667 55.9299 90.359 55.2379C91.051 54.5459 91.4403 53.6076 91.4414 52.6289V45.2461C91.4403 44.2674 91.051 43.3291 90.359 42.6371C89.667 41.9451 88.7287 41.5558 87.75 41.5547H80.3672C79.3885 41.5558 78.4502 41.9451 77.7582 42.6371C77.0662 43.3291 76.6769 44.2674 76.6758 45.2461V52.6289C76.6769 53.6076 77.0662 54.5459 77.7582 55.2379C78.4502 55.9299 79.3885 56.3192 80.3672 56.3203ZM79.8398 45.2461C79.8398 45.1062 79.8954 44.9721 79.9943 44.8732C80.0932 44.7743 80.2273 44.7188 80.3672 44.7188H87.75C87.8899 44.7188 88.024 44.7743 88.1229 44.8732C88.2218 44.9721 88.2773 45.1062 88.2773 45.2461V52.6289C88.2773 52.7688 88.2218 52.9029 88.1229 53.0018C88.024 53.1007 87.8899 53.1562 87.75 53.1562H80.3672C80.2273 53.1562 80.0932 53.1007 79.9943 53.0018C79.8954 52.9029 79.8398 52.7688 79.8398 52.6289V45.2461ZM17.0859 98.5078H24.4688C25.4474 98.5067 26.3857 98.1174 27.0777 97.4254C27.7698 96.7334 28.159 95.7951 28.1602 94.8164V87.4336C28.159 86.4549 27.7698 85.5166 27.0777 84.8246C26.3857 84.1326 25.4474 83.7433 24.4688 83.7422H17.0859C16.1073 83.7433 15.169 84.1326 14.477 84.8246C13.7849 85.5166 13.3956 86.4549 13.3945 87.4336V94.8164C13.3956 95.7951 13.7849 96.7334 14.477 97.4254C15.169 98.1174 16.1073 98.5067 17.0859 98.5078ZM16.5586 87.4336C16.5586 87.2937 16.6142 87.1596 16.713 87.0607C16.8119 86.9618 16.9461 86.9062 17.0859 86.9062H24.4688C24.6086 86.9062 24.7427 86.9618 24.8416 87.0607C24.9405 87.1596 24.9961 87.2937 24.9961 87.4336V94.8164C24.9961 94.9563 24.9405 95.0904 24.8416 95.1893C24.7427 95.2882 24.6086 95.3438 24.4688 95.3438H17.0859C16.9461 95.3438 16.8119 95.2882 16.713 95.1893C16.6142 95.0904 16.5586 94.9563 16.5586 94.8164V87.4336ZM96.1875 9.07031H94.2891V6.96094C94.2891 5.11478 93.5557 3.34424 92.2503 2.03881C90.9448 0.733382 89.1743 0 87.3281 0C85.482 0 83.7114 0.733382 82.406 2.03881C81.1006 3.34424 80.3672 5.11478 80.3672 6.96094V9.07031H60.9609V6.96094C60.9609 5.11478 60.2276 3.34424 58.9221 2.03881C57.6167 0.733382 55.8462 0 54 0C52.1538 0 50.3833 0.733382 49.0779 2.03881C47.7724 3.34424 47.0391 5.11478 47.0391 6.96094V9.07031H27.6328V6.96094C27.6328 5.11478 26.8994 3.34424 25.594 2.03881C24.2886 0.733382 22.518 0 20.6719 0C18.8257 0 17.0552 0.733382 15.7497 2.03881C14.4443 3.34424 13.7109 5.11478 13.7109 6.96094V9.07031H11.8125C9.71528 9.07255 7.7046 9.90665 6.22164 11.3896C4.73868 12.8726 3.90458 14.8833 3.90234 16.9805V100.09C3.90458 102.187 4.73868 104.198 6.22164 105.681C7.7046 107.164 9.71528 107.998 11.8125 108H96.1875C98.2847 107.998 100.295 107.164 101.778 105.681C103.261 104.198 104.095 102.187 104.098 100.09V16.9805C104.095 14.8833 103.261 12.8726 101.778 11.3896C100.295 9.90665 98.2847 9.07255 96.1875 9.07031ZM83.5312 6.96094C83.5312 5.95394 83.9313 4.98819 84.6433 4.27614C85.3554 3.56409 86.3211 3.16406 87.3281 3.16406C88.3351 3.16406 89.3009 3.56409 90.0129 4.27614C90.725 4.98819 91.125 5.95394 91.125 6.96094V13.9219C91.125 14.9289 90.725 15.8946 90.0129 16.6067C89.3009 17.3187 88.3351 17.7188 87.3281 17.7188C86.3211 17.7188 85.3554 17.3187 84.6433 16.6067C83.9313 15.8946 83.5312 14.9289 83.5312 13.9219V6.96094ZM50.2031 6.96094C50.2031 5.95394 50.6032 4.98819 51.3152 4.27614C52.0273 3.56409 52.993 3.16406 54 3.16406C55.007 3.16406 55.9727 3.56409 56.6848 4.27614C57.3969 4.98819 57.7969 5.95394 57.7969 6.96094V13.9219C57.7969 14.9289 57.3969 15.8946 56.6848 16.6067C55.9727 17.3187 55.007 17.7188 54 17.7188C52.993 17.7188 52.0273 17.3187 51.3152 16.6067C50.6032 15.8946 50.2031 14.9289 50.2031 13.9219V6.96094ZM16.875 6.96094C16.875 6.46232 16.9732 5.96859 17.164 5.50794C17.3548 5.04728 17.6345 4.62871 17.9871 4.27614C18.3397 3.92357 18.7582 3.64389 19.2189 3.45308C19.6795 3.26227 20.1733 3.16406 20.6719 3.16406C21.1705 3.16406 21.6642 3.26227 22.1249 3.45308C22.5855 3.64389 23.0041 3.92357 23.3567 4.27614C23.7092 4.62871 23.9889 5.04728 24.1797 5.50794C24.3705 5.96859 24.4688 6.46232 24.4688 6.96094V13.9219C24.4688 14.9289 24.0687 15.8946 23.3567 16.6067C22.6446 17.3187 21.6789 17.7188 20.6719 17.7188C19.6649 17.7188 18.6991 17.3187 17.9871 16.6067C17.275 15.8946 16.875 14.9289 16.875 13.9219V6.96094ZM82.6242 94.4283V95.3438H80.3672C80.2273 95.3438 80.0932 95.2882 79.9943 95.1893C79.8954 95.0904 79.8398 94.9563 79.8398 94.8164V87.4336C79.8398 87.2937 79.8954 87.1596 79.9943 87.0607C80.0932 86.9618 80.2273 86.9062 80.3672 86.9062H87.75C87.8225 86.9054 87.8944 86.9197 87.9609 86.9484C86.4026 87.4843 85.0502 88.4928 84.0921 89.8335C83.134 91.1742 82.618 92.7804 82.6158 94.4283H82.6242ZM85.7883 94.4283C85.7894 93.1699 86.2898 91.9633 87.1796 91.0735C88.0694 90.1837 89.276 89.6833 90.5344 89.6822H98.704L85.7883 102.598V94.4283ZM100.934 100.09C100.932 101.348 100.432 102.555 99.5423 103.445C98.6524 104.334 97.4459 104.835 96.1875 104.836H88.0179L100.934 91.9202V100.09ZM100.934 86.5181H91.3212C91.1174 85.7252 90.6562 85.0224 90.0099 84.52C89.3635 84.0176 88.5686 83.744 87.75 83.7422H80.3672C79.3885 83.7433 78.4502 84.1326 77.7582 84.8246C77.0662 85.5166 76.6769 86.4549 76.6758 87.4336V94.8164C76.6769 95.7951 77.0662 96.7334 77.7582 97.4254C78.4502 98.1174 79.3885 98.5067 80.3672 98.5078H82.6158V104.836H11.8125C10.5541 104.835 9.34756 104.334 8.45774 103.445C7.56792 102.555 7.06752 101.348 7.06641 100.09V35.2266H100.934V86.5181ZM100.934 32.0625H7.06641V16.9805C7.06752 15.7221 7.56792 14.5155 8.45774 13.6257C9.34756 12.7359 10.5541 12.2355 11.8125 12.2344H13.7109V13.9219C13.7109 15.768 14.4443 17.5386 15.7497 18.844C17.0552 20.1494 18.8257 20.8828 20.6719 20.8828C22.518 20.8828 24.2886 20.1494 25.594 18.844C26.8994 17.5386 27.6328 15.768 27.6328 13.9219V12.2344H47.0391V13.9219C47.0391 15.768 47.7724 17.5386 49.0779 18.844C50.3833 20.1494 52.1538 20.8828 54 20.8828C55.8462 20.8828 57.6167 20.1494 58.9221 18.844C60.2276 17.5386 60.9609 15.768 60.9609 13.9219V12.2344H80.3672V13.9219C80.3672 15.768 81.1006 17.5386 82.406 18.844C83.7114 20.1494 85.482 20.8828 87.3281 20.8828C89.1743 20.8828 90.9448 20.1494 92.2503 18.844C93.5557 17.5386 94.2891 15.768 94.2891 13.9219V12.2344H96.1875C97.4459 12.2355 98.6524 12.7359 99.5423 13.6257C100.432 14.5155 100.932 15.7221 100.934 16.9805V32.0625ZM66.6562 83.7422H59.2734C58.2948 83.7433 57.3565 84.1326 56.6645 84.8246C55.9724 85.5166 55.5831 86.4549 55.582 87.4336V94.8164C55.5831 95.7951 55.9724 96.7334 56.6645 97.4254C57.3565 98.1174 58.2948 98.5067 59.2734 98.5078H66.6562C67.6349 98.5067 68.5732 98.1174 69.2652 97.4254C69.9573 96.7334 70.3465 95.7951 70.3477 94.8164V87.4336C70.3465 86.4549 69.9573 85.5166 69.2652 84.8246C68.5732 84.1326 67.6349 83.7433 66.6562 83.7422ZM67.1836 94.8164C67.1836 94.9563 67.128 95.0904 67.0291 95.1893C66.9302 95.2882 66.7961 95.3438 66.6562 95.3438H59.2734C59.1336 95.3438 58.9994 95.2882 58.9006 95.1893C58.8017 95.0904 58.7461 94.9563 58.7461 94.8164V87.4336C58.7461 87.2937 58.8017 87.1596 58.9006 87.0607C58.9994 86.9618 59.1336 86.9062 59.2734 86.9062H66.6562C66.7961 86.9062 66.9302 86.9618 67.0291 87.0607C67.128 87.1596 67.1836 87.2937 67.1836 87.4336V94.8164ZM38.1797 98.5078H45.5625C46.5412 98.5067 47.4795 98.1174 48.1715 97.4254C48.8635 96.7334 49.2528 95.7951 49.2539 94.8164V87.4336C49.2528 86.4549 48.8635 85.5166 48.1715 84.8246C47.4795 84.1326 46.5412 83.7433 45.5625 83.7422H38.1797C37.201 83.7433 36.2627 84.1326 35.5707 84.8246C34.8787 85.5166 34.4894 86.4549 34.4883 87.4336V94.8164C34.4894 95.7951 34.8787 96.7334 35.5707 97.4254C36.2627 98.1174 37.201 98.5067 38.1797 98.5078ZM37.6523 87.4336C37.6523 87.2937 37.7079 87.1596 37.8068 87.0607C37.9057 86.9618 38.0398 86.9062 38.1797 86.9062H45.5625C45.7024 86.9062 45.8365 86.9618 45.9354 87.0607C46.0343 87.1596 46.0898 87.2937 46.0898 87.4336V94.8164C46.0898 94.9563 46.0343 95.0904 45.9354 95.1893C45.8365 95.2882 45.7024 95.3438 45.5625 95.3438H38.1797C38.0398 95.3438 37.9057 95.2882 37.8068 95.1893C37.7079 95.0904 37.6523 94.9563 37.6523 94.8164V87.4336ZM80.3672 77.4141H87.75C88.7287 77.4129 89.667 77.0237 90.359 76.3316C91.051 75.6396 91.4403 74.7013 91.4414 73.7227V66.3398C91.4403 65.3612 91.051 64.4229 90.359 63.7309C89.667 63.0388 88.7287 62.6496 87.75 62.6484H80.3672C79.3885 62.6496 78.4502 63.0388 77.7582 63.7309C77.0662 64.4229 76.6769 65.3612 76.6758 66.3398V73.7227C76.6769 74.7013 77.0662 75.6396 77.7582 76.3316C78.4502 77.0237 79.3885 77.4129 80.3672 77.4141ZM79.8398 66.3398C79.8398 66.2 79.8954 66.0659 79.9943 65.967C80.0932 65.8681 80.2273 65.8125 80.3672 65.8125H87.75C87.8899 65.8125 88.024 65.8681 88.1229 65.967C88.2218 66.0659 88.2773 66.2 88.2773 66.3398V73.7227C88.2773 73.8625 88.2218 73.9966 88.1229 74.0955C88.024 74.1944 87.8899 74.25 87.75 74.25H80.3672C80.2273 74.25 80.0932 74.1944 79.9943 74.0955C79.8954 73.9966 79.8398 73.8625 79.8398 73.7227V66.3398ZM38.1797 56.3203H45.5625C46.5412 56.3192 47.4795 55.9299 48.1715 55.2379C48.8635 54.5459 49.2528 53.6076 49.2539 52.6289V45.2461C49.2528 44.2674 48.8635 43.3291 48.1715 42.6371C47.4795 41.9451 46.5412 41.5558 45.5625 41.5547H38.1797C37.201 41.5558 36.2627 41.9451 35.5707 42.6371C34.8787 43.3291 34.4894 44.2674 34.4883 45.2461V52.6289C34.4894 53.6076 34.8787 54.5459 35.5707 55.2379C36.2627 55.9299 37.201 56.3192 38.1797 56.3203ZM37.6523 45.2461C37.6523 45.1062 37.7079 44.9721 37.8068 44.8732C37.9057 44.7743 38.0398 44.7188 38.1797 44.7188H45.5625C45.7024 44.7188 45.8365 44.7743 45.9354 44.8732C46.0343 44.9721 46.0898 45.1062 46.0898 45.2461V52.6289C46.0898 52.7688 46.0343 52.9029 45.9354 53.0018C45.8365 53.1007 45.7024 53.1562 45.5625 53.1562H38.1797C38.0398 53.1562 37.9057 53.1007 37.8068 53.0018C37.7079 52.9029 37.6523 52.7688 37.6523 52.6289V45.2461ZM59.6088 77.1166C59.7557 77.2633 59.93 77.3796 60.1218 77.4588C60.3137 77.5381 60.5192 77.5788 60.7268 77.5786C60.769 77.5786 60.8112 77.5786 60.8534 77.5786C61.0821 77.5604 61.3042 77.4927 61.5041 77.3802C61.7041 77.2676 61.8772 77.1129 62.0114 76.9268L70.2148 65.5594C70.4609 65.2189 70.5618 64.7947 70.4951 64.3799C70.4284 63.9651 70.1998 63.5938 69.8593 63.3477C69.5189 63.1015 69.0947 63.0007 68.6799 63.0674C68.2651 63.134 67.8938 63.3627 67.6477 63.7031L60.5391 73.5645L58.1175 71.1492C57.8207 70.8524 57.4182 70.6857 56.9985 70.6857C56.5788 70.6857 56.1762 70.8524 55.8795 71.1492C55.5827 71.446 55.4159 71.8485 55.4159 72.2682C55.4159 72.688 55.5827 73.0905 55.8795 73.3873L59.6088 77.1166ZM17.0859 56.3203H24.4688C25.4474 56.3192 26.3857 55.9299 27.0777 55.2379C27.7698 54.5459 28.159 53.6076 28.1602 52.6289V45.2461C28.159 44.2674 27.7698 43.3291 27.0777 42.6371C26.3857 41.9451 25.4474 41.5558 24.4688 41.5547H17.0859C16.1073 41.5558 15.169 41.9451 14.477 42.6371C13.7849 43.3291 13.3956 44.2674 13.3945 45.2461V52.6289C13.3956 53.6076 13.7849 54.5459 14.477 55.2379C15.169 55.9299 16.1073 56.3192 17.0859 56.3203ZM16.5586 45.2461C16.5586 45.1062 16.6142 44.9721 16.713 44.8732C16.8119 44.7743 16.9461 44.7188 17.0859 44.7188H24.4688C24.6086 44.7188 24.7427 44.7743 24.8416 44.8732C24.9405 44.9721 24.9961 45.1062 24.9961 45.2461V52.6289C24.9961 52.7688 24.9405 52.9029 24.8416 53.0018C24.7427 53.1007 24.6086 53.1562 24.4688 53.1562H17.0859C16.9461 53.1562 16.8119 53.1007 16.713 53.0018C16.6142 52.9029 16.5586 52.7688 16.5586 52.6289V45.2461ZM59.2734 56.3203H66.6562C67.6349 56.3192 68.5732 55.9299 69.2652 55.2379C69.9573 54.5459 70.3465 53.6076 70.3477 52.6289V45.2461C70.3465 44.2674 69.9573 43.3291 69.2652 42.6371C68.5732 41.9451 67.6349 41.5558 66.6562 41.5547H59.2734C58.2948 41.5558 57.3565 41.9451 56.6645 42.6371C55.9724 43.3291 55.5831 44.2674 55.582 45.2461V52.6289C55.5831 53.6076 55.9724 54.5459 56.6645 55.2379C57.3565 55.9299 58.2948 56.3192 59.2734 56.3203ZM58.7461 45.2461C58.7461 45.1062 58.8017 44.9721 58.9006 44.8732C58.9994 44.7743 59.1336 44.7188 59.2734 44.7188H66.6562C66.7961 44.7188 66.9302 44.7743 67.0291 44.8732C67.128 44.9721 67.1836 45.1062 67.1836 45.2461V52.6289C67.1836 52.7688 67.128 52.9029 67.0291 53.0018C66.9302 53.1007 66.7961 53.1562 66.6562 53.1562H59.2734C59.1336 53.1562 58.9994 53.1007 58.9006 53.0018C58.8017 52.9029 58.7461 52.7688 58.7461 52.6289V45.2461ZM38.1797 77.4141H45.5625C46.5412 77.4129 47.4795 77.0237 48.1715 76.3316C48.8635 75.6396 49.2528 74.7013 49.2539 73.7227V66.3398C49.2528 65.3612 48.8635 64.4229 48.1715 63.7309C47.4795 63.0388 46.5412 62.6496 45.5625 62.6484H38.1797C37.201 62.6496 36.2627 63.0388 35.5707 63.7309C34.8787 64.4229 34.4894 65.3612 34.4883 66.3398V73.7227C34.4894 74.7013 34.8787 75.6396 35.5707 76.3316C36.2627 77.0237 37.201 77.4129 38.1797 77.4141ZM37.6523 66.3398C37.6523 66.2 37.7079 66.0659 37.8068 65.967C37.9057 65.8681 38.0398 65.8125 38.1797 65.8125H45.5625C45.7024 65.8125 45.8365 65.8681 45.9354 65.967C46.0343 66.0659 46.0898 66.2 46.0898 66.3398V73.7227C46.0898 73.8625 46.0343 73.9966 45.9354 74.0955C45.8365 74.1944 45.7024 74.25 45.5625 74.25H38.1797C38.0398 74.25 37.9057 74.1944 37.8068 74.0955C37.7079 73.9966 37.6523 73.8625 37.6523 73.7227V66.3398Z" fill="#202120"/>
</svg>
